<svg xmlns="http://www.w3.org/2000/svg" width="251" height="225" fill="none" viewBox="0 0 251 225"><g clip-path="url(#clip0_155_447)"><path fill="#06F" fill-rule="evenodd" d="M189.214 0.00444739C140.503 -0.440333 125.5 32.6246 125.5 32.6246C125.5 32.6246 124.804 34.8981 125.106 38.3441C125.407 41.7901 127.874 48.0318 134.647 47.6932C145.8 47.1356 143.849 38.7714 151.099 39.329C158.349 39.8866 166.992 52.7126 162.531 63.0284C158.069 73.3442 151.377 74.4596 146.915 72.2292C142.454 69.9987 139.481 63.3987 134.355 64.7787C129.228 66.1587 125.5 69.2153 125.5 75.6225V114.37H241.126C252.025 88.2184 251.811 67.855 250.165 57.4037C248.519 46.9523 237.926 0.449228 189.214 0.00444739Z" clip-rule="evenodd"/><path fill="#FF0" fill-rule="evenodd" d="M61.7857 0.00444739C13.0742 0.449228 2.48091 46.9523 0.834707 57.4037C-0.811489 67.855 -1.02535 88.2192 9.87399 114.371H125.5V75.6225C125.5 69.2153 129.228 66.1587 134.355 64.7787C139.481 63.3987 142.454 69.9987 146.915 72.2292C151.377 74.4596 158.069 73.3442 162.531 63.0284C166.992 52.7126 158.349 39.8866 151.099 39.329C143.849 38.7714 145.8 47.1356 134.647 47.6932C123.493 48.2508 125.5 32.6246 125.5 32.6246C125.5 32.6246 110.497 -0.440333 61.7857 0.00444739Z" clip-rule="evenodd"/><path fill="green" fill-rule="evenodd" d="M241.126 114.37C241.126 114.37 226.895 146.386 193.459 173.556C160.024 200.727 125.5 225 125.5 225V183.757C125.5 183.757 122.425 176.462 115.327 177.448C108.229 178.434 107.321 185.507 101.367 185.507C95.413 185.507 88.9064 177.448 88.9064 168.971C88.9064 160.494 94.2299 152.411 100.145 152.411C106.06 152.411 112.364 161.628 116.113 161.628C119.862 161.628 125.5 160.552 125.5 152.243V114.371L241.126 114.37Z" clip-rule="evenodd"/><path fill="red" fill-rule="evenodd" d="M9.87439 114.37C9.87439 114.37 24.1049 146.386 57.5406 173.556C90.9763 200.727 125.5 224.999 125.5 224.999V183.756C125.5 181.541 122.426 176.462 115.328 177.448C108.23 178.433 107.321 185.507 101.367 185.507C95.4131 185.507 88.9073 177.447 88.9073 168.969C88.9073 160.492 94.2297 152.41 100.145 152.41C106.06 152.41 112.365 161.628 116.114 161.628C119.863 161.628 125.5 160.552 125.5 152.243V114.37H9.87439Z" clip-rule="evenodd"/><path fill="#fff" d="M65.3546 61.3555C72.7466 61.3555 78.739 55.3639 78.739 47.9729C78.739 40.5819 72.7466 34.5903 65.3546 34.5903C57.9627 34.5903 51.9703 40.5819 51.9703 47.9729C51.9703 55.3639 57.9627 61.3555 65.3546 61.3555Z"/><path fill="#fff" d="M181.77 58.2887C189.162 58.2887 195.155 52.2971 195.155 44.906C195.155 37.515 189.162 31.5234 181.77 31.5234C174.378 31.5234 168.386 37.515 168.386 44.906C168.386 52.2971 174.378 58.2887 181.77 58.2887Z"/><path fill="#fff" fill-rule="evenodd" d="M186.613 60.8828C184.974 60.8958 183.482 61.2151 181.971 61.6507C173.794 64.0068 153.971 83.6013 148.649 89.5212C142.343 93.9597 148.138 93.5621 145.002 97.7027C143.645 99.4021 140.989 101.559 137.903 101.646C134.816 101.733 131.281 97.3913 128.785 96.7672C126.288 96.143 125.473 96.3702 123.509 96.9147C121.546 97.4592 119.668 100.264 117.497 100.858C115.325 101.451 113.268 101.222 111.187 100.561C101.863 95.4418 107.267 97.6924 104.423 93.2599C96.45 81.0277 75.4358 61.915 64.7533 63.8922C61.5231 64.3896 57.3651 65.7794 53.5142 68.8212C49.6632 71.8629 45.6061 77.3875 43.1637 82.5234C40.7213 87.6594 39.793 93.5714 39.1211 98.9836C38.4492 104.396 37.8588 111.438 39.0221 114.756C40.1854 118.075 40.7035 118.526 42.3739 118.896C44.0444 119.265 44.6031 119.969 46.8106 116.728C49.018 113.487 47.7547 102.585 48.987 98.4739L51.0493 91.5917C52.0713 88.1824 52.1561 99.3763 51.3461 105.785C50.5361 112.194 46.1815 123.458 44.7398 129.443C43.2981 135.427 38.0947 141.483 42.275 141.321H54.993C54.993 141.321 56.0195 146.269 56.5876 149.353C57.1728 152.53 58.6143 158.173 62.0856 156.659C65.5569 155.146 62.312 141.321 62.312 141.321H64.9495C64.9495 141.321 64.9134 164.867 66.5977 170.895C66.5977 170.895 67.7933 172.925 70.5699 172.814C72.7923 172.726 75.0065 170.548 75.0065 170.548C78.0448 165.731 75.7946 141.321 75.7946 141.321H88.8077C91.8988 141.251 86.1351 125.727 86.1351 125.727C86.1351 125.727 81.9893 115.69 80.7242 107.561C79.4591 99.4317 80.4274 87.4507 80.4274 87.4507C80.4274 87.4507 96.2223 97.3183 100.473 100.484C104.723 103.65 104.678 104.105 106.75 105.195C109.376 106.576 111.652 103.351 114.636 106.771C114.682 118.123 113.79 129.852 114.576 133.217C117.982 137.267 116.142 160.345 116.585 166.645C116.86 170.566 118.454 172.102 118.454 172.102C118.454 172.102 122.734 175.347 123.691 170.647C124.404 167.139 125.58 144.82 125.58 144.82C125.58 144.82 126.506 164.057 126.994 168.913C127.466 173.614 129.963 172.87 131.199 172.717C132.435 172.564 134.214 169.937 134.214 169.937C136.259 164.672 134.406 139.288 136.107 133.225C136.107 133.225 136.949 116.326 136.367 107.623C140.12 107.409 141.836 107.322 144.056 106.144C146.277 104.966 148.189 103.261 149.043 101.646C149.896 100.031 148.751 99.0406 149.734 97.9994C155.673 96.2761 153.691 97.0143 155.155 95.1393C157.275 92.4667 170.337 84.2972 170.337 84.2972C174.281 96.7467 169.157 105.091 172.507 117.368C174.841 126.003 170.223 161.9 173.984 170.154C173.984 170.154 177.327 172.949 179.013 172.913C180.698 172.878 182.759 170.647 182.759 170.647C186.667 164.103 182.634 131.584 184.829 129.345L187.343 126.782L186.654 155.861L191.238 154.579C194.554 153.652 196.86 123.514 199.59 117.682L200.406 88.8322C203.154 92.2767 204.018 100.109 204.546 104.702C205.075 109.295 203.04 113.797 204.251 116.037C205.463 118.277 206.056 118.78 207.603 118.805C209.15 118.83 210.031 118.855 212.236 115.445C214.441 112.036 214.742 102.52 214.109 96.5207C213.475 90.5216 211.395 85.1714 208.884 80.1578C206.373 75.1443 202.715 69.8331 199.322 66.7507C195.928 63.6682 192.76 61.9085 189.759 61.2315C188.634 60.9777 187.597 60.8751 186.613 60.8828ZM122.592 102.202C124.287 102.127 125.5 103.47 125.5 103.47C125.5 103.47 126.88 101.942 128.753 102.238C130.626 102.533 132.957 104.782 130.724 108.151C129.714 109.676 125.5 113.474 125.5 113.474C125.5 113.474 121.286 109.676 120.275 108.151C118.043 104.782 120.374 102.533 122.247 102.238C122.364 102.219 122.479 102.207 122.592 102.202Z" clip-rule="evenodd"/><path fill="#fff" d="M126.267 94.7207C131.618 94.7207 135.956 90.383 135.956 85.0322C135.956 79.6814 131.618 75.3437 126.267 75.3437C120.915 75.3437 116.577 79.6814 116.577 85.0322C116.577 90.383 120.915 94.7207 126.267 94.7207Z"/></g><defs><clipPath id="clip0_155_447"><rect width="251" height="225" fill="#fff"/></clipPath></defs></svg>