<?xml version="1.0" encoding="UTF-8" standalone="no"?>

<svg height="42.258442mm" id="svg5" version="1.1" viewBox="0 0 42.095669 42.258442"
    width="42.095669mm" xmlns="http://www.w3.org/2000/svg" xml:space="preserve">
    <defs id="defs2" />
    <g id="layer1" transform="translate(-87.641166,-134.56701)"><path
       style="fill:#defcf9;stroke-width:0.352778;fill-opacity:1"
       d="m 114.89325,176.46989 c -0.7875,-0.45868 -0.78846,-1.7331 -0.002,-3.10285 0.89075,-1.55204 0.30045,-1.95339 -3.1002,-2.10782 l -2.8065,-0.12745 v -3.26715 -3.26716 l 1.35957,-0.89972 c 1.9713,-1.30454 5.41836,-4.57633 6.56552,-6.23168 l 0.99031,-1.42902 h 3.14129 3.14129 l -0.10246,2.87323 c -0.0799,2.23943 -0.23409,2.95598 -0.69917,3.24836 -0.45245,0.28444 -0.75767,0.22947 -1.2625,-0.2274 -0.77252,-0.69912 -2.22117,-0.79076 -2.83274,-0.17919 -0.44826,0.44826 -0.56841,2.31589 -0.2092,3.25198 0.2807,0.73147 2.02631,0.72433 3.15144,-0.0129 1.47104,-0.96387 1.9261,-0.20223 1.9261,3.22372 v 2.91922 l -2.98114,0.12439 c -3.58739,0.14969 -4.18279,0.53264 -3.27833,2.10857 0.80918,1.4099 0.7821,2.66409 -0.0673,3.11869 -0.85762,0.45899 -2.13018,0.45211 -2.93361,-0.0158 z m -22.136806,-8.0182 c 0,-1.79843 -0.170679,-2.98822 -0.491638,-3.42716 -0.477799,-0.65343 -0.52511,-0.65433 -1.680722,-0.032 -0.653996,0.3522 -1.583696,0.58473 -2.066,0.51674 -0.81276,-0.11459 -0.876918,-0.26559 -0.876918,-2.06391 0,-1.79832 0.06416,-1.94932 0.876918,-2.06391 0.482304,-0.068 1.412004,0.16454 2.066,0.51674 1.155612,0.62234 1.202923,0.62144 1.680722,-0.032 0.314161,-0.42964 0.491638,-1.60314 0.491638,-3.25076 v -2.57841 h 3.118396 3.11839 l 1.64997,2.1247 c 0.90749,1.16858 2.91465,3.11327 4.46035,4.32153 l 2.81037,2.19683 0.006,3.26319 0.006,3.2632 h -2.83329 c -3.25454,0 -3.6395,-0.3351 -2.68481,-2.33709 0.71572,-1.50089 0.71786,-1.7072 0.0249,-2.40021 -0.65342,-0.65342 -3.00079,-0.73866 -3.60842,-0.13104 -0.57598,0.57599 -0.53258,1.76682 0.0946,2.59605 0.68281,0.90276 0.67519,1.79229 -0.0176,2.05815 -0.30691,0.11778 -1.81503,0.21414 -3.35138,0.21414 h -2.793376 z m 0,-15.91358 c 0,-1.34232 0.09636,-2.6917 0.214133,-2.99861 0.279921,-0.72947 1.230992,-0.70753 2.572743,0.0593 1.49504,0.85448 2.29345,0.31433 2.43815,-1.6495 0.17763,-2.41059 -0.93508,-3.10271 -3.043124,-1.89286 -1.718357,0.9862 -2.181902,0.28685 -2.181902,-3.29181 v -2.95541 h 2.955416 c 3.54555,0 4.25545,-0.45574 3.28059,-2.10604 -1.23514,-2.09092 -0.50024,-3.29627 1.90165,-3.11899 1.91179,0.1411 2.34756,1.05617 1.37081,2.87858 -0.9931,1.8529 -0.3536,2.34645 3.04034,2.34645 h 2.62064 v 4.01891 4.01892 l -1.30931,-0.66753 c -1.6788,-0.8559 -3.30636,-0.84676 -5.0214,0.0282 -2.44098,1.24529 -3.83045,3.96138 -3.34642,6.54146 l 0.23065,1.22949 h -2.86148 -2.861486 z m 25.964306,1.06567 c 0.76206,-4.76568 -4.29067,-8.59807 -8.41883,-6.3855 l -1.3177,0.70624 v -4.05763 -4.05763 h 2.49264 c 3.41614,0 4.81028,0.88664 3.3282,2.11666 -0.29104,0.24155 -0.52917,0.97929 -0.52917,1.63943 0,0.96601 0.17787,1.26789 0.91138,1.54676 0.52637,0.20013 1.38329,0.22489 2.02847,0.0586 1.38309,-0.35644 1.64001,-1.48815 0.72399,-3.1891 -0.62234,-1.15562 -0.62144,-1.20293 0.032,-1.68073 0.43894,-0.32096 1.62872,-0.49164 3.42715,-0.49164 h 2.7548 v 2.66903 c 0,3.86298 0.68501,4.75693 2.65567,3.4657 0.53303,-0.34925 1.20171,-0.48404 1.73603,-0.34994 1.16653,0.29278 1.58975,2.29139 0.755,3.56538 -0.6673,1.01843 -1.06187,1.07457 -2.453,0.34905 -2.08325,-1.08649 -2.6937,-0.37174 -2.6937,3.15398 v 2.31625 h -2.82639 -2.82639 z"
       id="path248" /></g></svg>
